<svg width="198" height="198" viewBox="0 0 198 198" fill="none" xmlns="http://www.w3.org/2000/svg">
<mask id="mask0" mask-type="alpha" maskUnits="userSpaceOnUse" x="0" y="0" width="198" height="198">
<rect width="198" height="198" rx="5" fill="#EAEBEF"/>
</mask>
<g mask="url(#mask0)">
<path d="M0 6.60001C0 2.95493 2.95492 0 6.6 0H191.4C195.045 0 198 2.95492 198 6.6V191.4C198 195.045 195.045 198 191.4 198H6.60001C2.95493 198 0 195.045 0 191.4V6.60001Z" fill="#EAEBEF"/>
<path d="M118.549 114.163L106.737 90.5382C106.532 90.1287 106.128 89.8544 105.671 89.8163C105.212 89.7874 104.771 89.9817 104.502 90.3531L94.8103 103.679L89.3201 99.286C89.0169 99.0432 88.6206 98.9513 88.2413 99.0248C87.8606 99.1022 87.5338 99.3424 87.3474 99.6837L79.4724 114.121C79.2506 114.528 79.2598 115.022 79.4961 115.419C79.7323 115.817 80.1615 116.062 80.6248 116.062H117.375C117.83 116.062 118.252 115.826 118.492 115.439C118.732 115.052 118.752 114.569 118.549 114.163Z" fill="#CC3366"/>
<path d="M91.1248 92.4375C94.0243 92.4375 96.3748 90.087 96.3748 87.1875C96.3748 84.288 94.0243 81.9375 91.1248 81.9375C88.2253 81.9375 85.8748 84.288 85.8748 87.1875C85.8748 90.087 88.2253 92.4375 91.1248 92.4375Z" fill="#CC3366"/>
</g>
</svg>
